<svg width="512" height="446" viewBox="0 0 512 446" fill="none" xmlns="http://www.w3.org/2000/svg">
<path d="M0 123.469C3.04441 120.212 2.67033 116.046 3.99543 112.588C13.2622 88.4005 31.5063 75.6913 56.0879 70.5978C59.7208 69.845 63.31 69.6418 66.968 69.643C95.4559 69.6526 123.944 69.553 152.431 69.7365C157.163 69.767 158.905 68.4556 158.745 63.5547C158.42 53.5696 158.875 43.5603 158.602 33.572C158.078 14.3507 173.156 0.428025 191.412 0.552815C234.225 0.84546 277.044 0.880483 319.856 0.542844C339.278 0.389673 354.014 14.7048 353.403 33.8571C353.079 44.009 353.523 54.1843 353.266 64.3401C353.161 68.5256 354.571 69.7432 358.686 69.7206C385.673 69.5721 412.663 69.7682 439.651 69.6124C460.1 69.4943 478.523 75.2408 493.328 89.459C503.872 99.5855 509.44 112.813 511.869 127.649C512 214.021 512 300.042 511.881 386.885C509.47 399.762 505.474 411.123 497.382 420.586C482.552 437.928 462.954 445.22 440.817 445.259C318.019 445.475 195.22 445.359 72.4209 445.363C65.9305 445.363 59.4932 444.625 53.1923 443.238C35.0985 439.255 20.2855 430.128 10.1193 414.349C4.56937 405.735 1.58634 396.088 0 386C0 298.646 0 211.292 0 123.469ZM431.495 92.3822C312.689 92.3781 193.883 92.3721 75.0775 92.3778C70.765 92.378 66.4999 92.5989 62.1804 93.2041C37.8404 96.6147 22.3594 114.145 22.3548 138.816C22.3401 217.132 22.3548 295.447 22.3325 373.762C22.3314 377.76 22.4909 381.705 23.3444 385.64C25.7041 396.523 30.3437 405.898 39.6786 412.615C49.3586 419.58 60.2939 422.577 71.9302 422.587C192.902 422.692 313.875 422.653 434.847 422.639C439.489 422.638 444.083 422.44 448.738 421.779C474.359 418.14 489.642 400.85 489.649 374.906C489.67 297.757 489.668 220.608 489.655 143.46C489.654 139.151 489.548 134.891 488.801 130.567C485.678 112.484 475.796 100.52 458.127 95.0647C449.732 92.4723 441.151 92.185 431.495 92.3822ZM309.471 22.358C293.142 22.3598 276.813 22.3626 260.485 22.3631C239.324 22.3637 218.164 22.3427 197.003 22.3692C184.193 22.3852 181.358 25.2021 181.346 37.7724C181.337 46.4365 181.578 55.1094 181.255 63.7614C181.084 68.3265 182.449 69.767 187.13 69.7422C220.952 69.5637 254.776 69.6586 288.6 69.6624C300.93 69.6638 313.26 69.6109 325.589 69.678C328.62 69.6944 330.74 69.3211 330.689 65.4454C330.542 54.284 330.795 43.1159 330.553 31.9577C330.457 27.4982 328.427 24.2597 323.355 23.1953C319.03 22.2878 314.761 22.5018 309.471 22.358Z" fill="#2D2D2D"/>
<path d="M208.65 313.047C208.491 300.887 210.171 302.448 198.682 302.37C189.515 302.307 180.348 302.416 171.182 302.353C156.228 302.249 149.096 295.176 149.523 280.935C150.077 262.452 149.643 243.939 149.675 225.439C149.697 213.213 156.253 206.686 168.503 206.66C180.17 206.634 191.838 206.53 203.502 206.728C207.362 206.793 208.804 205.682 208.731 201.634C208.507 189.305 208.611 176.969 208.667 164.635C208.713 154.477 214.651 148.657 224.872 148.652C245.539 148.644 266.206 148.646 286.872 148.661C297.683 148.669 303.304 154.37 303.331 165.37C303.361 177.37 303.5 189.373 303.264 201.368C303.181 205.592 304.652 206.808 308.736 206.727C320.065 206.503 331.402 206.624 342.735 206.657C355.719 206.695 362.34 213.347 362.346 226.318C362.356 244.818 362.014 263.327 362.465 281.816C362.771 294.375 356.179 301.959 342.396 302.282C331.069 302.547 319.728 302.486 308.399 302.277C304.437 302.204 303.197 303.539 303.264 307.454C303.469 319.284 303.363 331.12 303.328 342.953C303.296 353.844 296.798 360.347 285.953 360.358C265.786 360.378 245.62 360.39 225.453 360.364C215.243 360.351 208.689 353.765 208.659 343.537C208.629 333.537 208.651 323.538 208.65 313.047ZM231.35 178.656C231.346 190.982 231.355 203.309 231.333 215.635C231.316 225.318 227.353 229.352 217.857 229.36C204.53 229.371 191.201 229.523 177.88 229.257C173.394 229.167 172.183 230.704 172.265 235.012C172.507 247.667 172.502 260.333 172.268 272.989C172.188 277.325 173.518 278.824 177.951 278.74C190.772 278.495 203.604 278.54 216.428 278.706C227.342 278.848 231.319 283.069 231.333 293.994C231.35 306.821 231.46 319.649 231.274 332.473C231.218 336.312 232.274 337.787 236.337 337.722C249.493 337.508 262.656 337.544 275.814 337.717C279.522 337.766 280.759 336.523 280.712 332.82C280.547 319.662 280.633 306.501 280.673 293.342C280.679 291.529 280.707 289.649 281.162 287.915C282.829 281.559 287.124 278.778 295.758 278.696C308.749 278.573 321.744 278.568 334.736 278.709C338.375 278.749 339.762 277.542 339.718 273.809C339.561 260.652 339.525 247.489 339.731 234.332C339.795 230.263 338.247 229.245 334.447 229.294C320.957 229.468 307.462 229.372 293.97 229.35C284.721 229.336 280.689 225.3 280.662 215.961C280.623 202.801 280.534 189.64 280.721 176.483C280.776 172.624 279.685 171.197 275.638 171.269C262.982 171.493 250.313 171.585 237.663 171.232C232.552 171.089 230.507 172.666 231.35 178.656Z" fill="#2D2D2D"/>
</svg>
