<?xml version="1.0" encoding="UTF-8"?>
<svg version="1.1" viewBox="0 0 2048 614" width="1280" height="1280" xmlns="http://www.w3.org/2000/svg">
<path transform="translate(1516,163)" d="m0 0 31 1v52l-1 15 13-9 11-4 5-1h13l11 2 10 5 7 7 5 10 2 8 1 11v71l-1 1h-32l-1-73-3-9-6-5-8-2-11 1-8 5-5 9-1 3-1 71h-32l-1-84v-77l1-7z" fill="#151515"/>
<path transform="translate(575,172)" d="m0 0h23l14 4 12 7 10 10 6 10 4 11 1 5v16l-4 14-6 11-12 17-12 16-28 38-1 1h-36l2-4 14-18 16-21 6-8 1-2h-11l-13-3-12-6-7-6-6-8-5-10-3-13v-14l3-12 7-13 9-9 11-7 9-4zm4 29-10 5-7 8-3 9v11l4 9 7 8 9 4 10 1 10-2 6-4 7-8 3-10v-9l-3-9-4-6-5-4-8-3z" fill="#141414"/>
<path transform="translate(273,122)" d="m0 0h48l10 3 9 6 6 9 3 11v18h49l13 4 11 8 8 9 5 10 2 8v124l-4 13-7 10-7 7-12 6-12 3h-197l-11-3-10-5-8-7-7-11-4-12-1-16v-86l1-26 5-12 6-8 5-5 8-6 10-4 5-1h49v-21l4-11 8-9 10-5zm0 10-8 3-5 5-3 5-2 10v13l1 1h83v-18l-3-9-6-7-8-3zm-73 46-12 3-10 7-7 10-3 8-1 12v108l2 11 5 10 8 8 10 5 10 2h191l10-2 8-4 10-9 5-11 1-5v-123l-4-11-6-8-7-6-8-4-5-1z" fill="#141414"/>
<path transform="translate(1166,217)" d="m0 0h23l15 4 13 7 10 9 7 11 4 11 2 15-1 14-4 13-6 11-10 10-12 7-13 4-5 1h-25l-16-5-12-7-9-9-8-14-3-12-1-16 3-16 7-14 9-10 11-7 12-5zm5 26-10 4-7 6-4 8-2 7v16l4 11 6 8 10 5h19l8-4 6-5 5-10 1-4v-18l-3-9-6-8-8-5-6-2z" fill="#141414"/>
<path transform="translate(1745,217)" d="m0 0h23l13 3 11 6 8 9 4 12 1 17 1 55 1 13h-29l-2-5v-6l-14 9-9 3-5 1h-20l-11-4-7-6-6-12-1-11 2-10 4-8 8-7 16-7 33-8 6-4 1-6-3-6-3-3-4-1h-16l-8 4-4 7-1 5-9-1-20-4 1-7 7-13 8-7 11-5zm27 64-28 8-8 5-2 4 1 8 7 6 3 1h8l9-3 5-4 6-10 3-12v-3z" fill="#151515"/>
<path transform="translate(1301,217)" d="m0 0h15l12 2 12 5 7 6 5 8 3 11 1 60 2 18v5h-30l-2-11-11 8-16 5h-20l-10-4-7-5-5-8-2-6-1-10 3-12 6-9 11-7 14-5 26-6 8-4 2-2v-6l-3-5v-2l-11-3h-9l-8 3-5 4-4 10-12-2-15-3-1-4 4-9 6-9 8-6 13-5zm22 64-28 8-6 3-4 5v7l4 6 6 3h9l9-3 7-6 5-10 2-9v-4z" fill="#141414"/>
<path transform="translate(1038,217)" d="m0 0h18l16 4 11 6 10 9 8 14 2 9-13 2-17 1-5-10-6-5-8-3h-13l-10 4-7 8-4 11v16l3 10 6 8 5 4 4 2 14 1 11-4 7-8 3-7 30 3-3 11-7 12-7 7-14 8-10 3-7 1h-19l-12-3-12-6-10-8-8-11-5-11-2-8v-24l5-15 7-10 4-5 11-8 12-5z" fill="#141414"/>
<path transform="translate(1430,217)" d="m0 0h13l12 2 13 5 11 8 8 11 5 12v4l-21 3h-8l-7-12-8-5-8-2-10 1-7 3-8 7-4 8-2 10 1 14 4 10 7 8 7 3 6 1h8l10-4 6-5 3-5 2-5 21 2 8 1-1 7-7 14-6 7-10 7-12 5-10 2h-21l-12-3-15-8-11-11-8-16-3-16v-13l4-15 6-11 10-11 10-6 10-4z" fill="#141414"/>
<path transform="translate(715,174)" d="m0 0h31l1 2v25l-1 131h-31l-1-124-13 12-16 15-5 5h-2v-32l5-5 14-13 8-7z" fill="#141414"/>
<path transform="translate(849,174)" d="m0 0h31l1 2v155l-1 1h-31l-1-124-8 7-8 8-8 7-10 10h-2v-32l5-5 13-12 8-7z" fill="#141414"/>
<path transform="translate(1835,219)" d="m0 0h31l1 1v112h-32z" fill="#141414"/>
<path transform="translate(282,228)" d="m0 0h30l3 2v22l23 1 2 7v20l-2 7h-23v24l-3 1h-31l-1-2v-23h-23l-2-7 1-26 1-1 22-1 1-23zm7 10-1 23-23 1v15l20 1 3 1 1 17v6l1 1h14l1-1 1-24h10l14-1v-14l-1-1-22-1-1-1-1-22z" fill="#151515"/>
<path transform="translate(289,201)" d="m0 0h19l15 4 12 6 10 8 7 7 7 11 5 12 2 8 1 9v10l-3 15-8 16-5 8-4 1-4-3v-5l6-9 5-13 2-12-1-15-4-13-4-8-8-10-12-9-11-5-8-2h-21l-11 1-2-3v-5l8-3z" fill="#141414"/>
<path transform="translate(1849,166)" d="m0 0 9 1 6 4 4 6 1 3v9l-4 8-7 5-3 1h-9l-7-4-4-5-2-4v-11l5-8 7-4z" fill="#141414"/>
<path transform="translate(264,209)" d="m0 0 5 5-2 5-13 11-8 11-5 12-2 9v17l2 9 3 7v5l-3 2-5-1-5-10-3-13v-17l3-13 8-16 6-8 8-8z" fill="#151515"/>
<path transform="translate(248,310)" d="m0 0 6 1 12 9 12 6 8 2h24l14-5 5 1 2 2-1 4-6 4-12 4-8 1h-14l-14-3-12-5-11-8-7-7 1-4z" fill="#151515"/>
</svg>
